<svg width="444" height="172" viewBox="0 0 444 172" fill="none" xmlns="http://www.w3.org/2000/svg">
<path d="M56.19 0.465526C52.4238 0.138397 48.3583 -0.0392467 44.2318 0.00734741C42.5654 0.0257909 40.8889 0.0811225 39.2185 0.178194C38.3338 0.393692 37.465 0.657727 36.6183 0.980974C30.0837 3.47279 28.8537 7.98951 25.6649 13.4575C21.096 21.2902 15.0489 25.3604 5.86201 25.9914C3.90334 26.1263 1.94766 26.1059 0 26.1214V52.7558C5.43364 50.7115 11.5158 49.5942 16.355 45.8609C19.9771 43.0652 21.6315 38.2699 23.7683 34.2123C24.527 32.7728 25.3457 31.4254 26.3345 30.2936C30.414 25.6283 38.0505 25.9273 44.0987 24.347C45.0125 24.1101 45.8882 23.8286 46.7109 23.4821C56.8076 19.2197 62.4714 8.58553 72.1657 3.02141C67.0043 1.7721 61.6497 0.939234 56.19 0.465526ZM99.9604 15.8552C96.1161 18.114 92.6011 20.8019 89.6666 24.148C83.4443 31.2429 82.2893 38.3087 74.5757 42.6226C73.6509 43.1409 72.6321 43.6185 71.4981 44.0524C71.0277 44.232 70.5403 44.4038 70.0299 44.5679C64.341 46.3977 59.4118 47.2111 54.963 48.4828C54.2954 48.674 53.6378 48.8749 52.9913 49.0914C49.4503 50.2766 46.2035 51.9191 43.0948 54.8361C41.5135 56.3193 39.9682 58.1326 38.4379 60.3827C33.2554 68.0028 31.0315 70.4548 23.5201 72.669C23.1478 72.7787 22.7625 72.8884 22.3631 72.9971C10.6671 76.1956 5.87002 86.6142 0 95.637V118.316C7.98983 114.814 19.835 113.071 25.1305 106.446C25.9362 105.437 26.5907 104.316 27.0561 103.059C27.1452 102.818 27.2253 102.58 27.2973 102.344C28.3352 98.9423 27.7197 96.0146 29.223 92.5259C29.4532 91.991 29.7334 91.4426 30.0777 90.8776C30.389 90.367 30.7143 89.8817 31.0525 89.4206C36.7174 81.717 46.1595 80.6424 54.2344 75.9733C55.7967 75.0705 56.9357 74.0523 57.8474 72.9389C60.4897 69.7151 61.2273 65.709 64.8324 61.4563C64.8364 61.4515 64.8404 61.4466 64.8444 61.4418C66.4838 59.513 68.4015 57.9452 70.4302 56.5241C70.5733 56.4232 70.7174 56.3242 70.8626 56.2251C72.3448 55.2088 73.8791 54.2614 75.4024 53.3004C77.7454 51.823 80.0594 50.3125 82.1152 48.4721C88.3435 42.8944 93.0015 35.3112 100.271 30.7352C103.401 28.7647 106.776 27.3125 110.283 26.137C107.224 22.2095 103.758 18.7984 99.9604 15.8552ZM125.893 74.9599C124.789 64.9441 123.5 54.9186 120.382 45.4425C113.357 48.3993 106.812 51.8919 102.448 58.5384C100.662 61.2573 99.1888 64.4529 97.7485 67.7679C93.6771 77.1333 89.8658 87.4442 80.0144 90.5951C79.2678 90.8339 78.5511 91.0329 77.8626 91.2009C76.9998 91.4115 76.1801 91.5726 75.4014 91.6998C75.3294 91.7115 75.2573 91.7231 75.1863 91.7348C67.2565 92.9773 63.4803 90.7922 59.9622 101.721C55.9999 114.029 52.693 121.72 43.7284 131.634C43.252 132.161 42.7706 132.676 42.2851 133.182C40.8329 134.697 39.3436 136.123 37.8263 137.498C36.307 138.877 34.7597 140.203 33.1894 141.519C30.5421 143.736 27.8308 145.922 25.0884 148.263C16.9195 155.235 14.2011 161.394 10.474 171.043C10.3538 171.353 10.2327 171.673 10.1086 172H57.5802C61.8679 168.211 66.4308 164.596 67.2805 158.656C67.6758 155.892 67.7029 153.19 68.0141 150.525C68.2673 148.352 68.7077 146.205 69.6916 144.074C70.0939 143.202 70.5343 142.354 71.0117 141.53C71.0267 141.504 71.0417 141.478 71.0567 141.453C71.1298 141.327 71.2029 141.203 71.2779 141.08C72.1276 139.663 73.0845 138.312 74.1284 137.02C75.0021 135.939 75.9369 134.898 76.9237 133.893C77.3261 133.482 77.7374 133.077 78.1568 132.677C78.9104 131.958 79.6891 131.257 80.4898 130.572C81.3635 129.822 82.2623 129.092 83.1811 128.376C86.2107 126.016 89.4555 123.825 92.7212 121.699C93.8282 120.977 94.9381 120.264 96.0421 119.554C98.24 118.142 100.417 116.745 102.515 115.33C104.652 113.887 105.837 111.523 105.777 109.119C105.776 109.027 105.772 108.935 105.765 108.843C105.71 107.984 105.496 107.126 105.109 106.307C104.638 105.312 104.358 104.284 104.251 103.227C103.378 94.6906 113.74 84.2913 125.893 74.9599ZM133.422 121.295C128.07 128.598 123.231 136.262 119.695 144.821C116.059 153.623 112.551 163.398 107.827 172H119.158C122.005 161.796 135.232 150.772 140.362 145.071C142.145 143.09 143.71 140.996 145.111 138.819C139.436 135.599 135.833 128.863 133.422 121.295ZM263.003 67.0738C262.836 67.0942 262.669 67.1156 262.502 67.1379C262.304 67.1631 262.107 67.1893 261.909 67.2165C261.757 67.2369 261.606 67.2582 261.453 67.2796C261.305 67.3 261.158 67.3213 261.01 67.3427C260.809 67.3718 260.608 67.4019 260.407 67.432C260.323 67.4446 260.239 67.4563 260.156 67.4699C260.073 67.4825 259.99 67.4951 259.906 67.5077C259.888 67.5106 259.869 67.5136 259.851 67.5165C259.601 67.5553 259.35 67.5951 259.099 67.6368C258.89 67.6708 258.681 67.7057 258.472 67.7417C258.384 67.7562 258.296 67.7708 258.209 67.7863C257.989 67.8232 257.77 67.862 257.552 67.9009C257.53 67.9047 257.509 67.9086 257.488 67.9125C257.276 67.9504 257.064 67.9892 256.853 68.028C256.779 68.0416 256.707 68.0552 256.634 68.0688C256.562 68.0824 256.489 68.096 256.417 68.1096C256.239 68.1426 256.061 68.1766 255.883 68.2115C255.881 68.2125 255.878 68.2125 255.876 68.2125C255.67 68.2532 255.464 68.293 255.258 68.3348C255.169 68.3522 255.08 68.3697 254.991 68.3882C254.751 68.4367 254.511 68.4862 254.27 68.5367C254.108 68.5697 253.947 68.6046 253.786 68.6396C253.666 68.6638 253.546 68.6901 253.426 68.7163C253.271 68.7493 253.118 68.7832 252.965 68.8172C252.814 68.8502 252.663 68.8842 252.512 68.9182C252.507 68.9191 252.502 68.9201 252.497 68.9211C252.286 68.9686 252.074 69.0162 251.864 69.0657C251.623 69.121 251.383 69.1773 251.142 69.2346C251.093 69.2463 251.044 69.2579 250.995 69.2696C250.751 69.3278 250.508 69.3861 250.264 69.4462C250.253 69.4492 250.242 69.4511 250.231 69.454C249.99 69.5132 249.747 69.5734 249.506 69.6346C249.287 69.6899 249.069 69.7452 248.851 69.8015C248.552 69.8782 248.255 69.9559 247.957 70.0355C247.664 70.1131 247.37 70.1927 247.077 70.2723C246.914 70.317 246.752 70.3616 246.59 70.4072C246.356 70.4713 246.121 70.5373 245.887 70.6043C245.712 70.6538 245.537 70.7033 245.362 70.7548C245.097 70.8305 244.833 70.9072 244.57 70.9858C244.391 71.0372 244.212 71.0906 244.034 71.145C243.944 71.1712 243.854 71.1984 243.765 71.2256C243.571 71.2838 243.377 71.343 243.183 71.4032C243.121 71.4216 243.06 71.4401 242.998 71.4595C242.802 71.5197 242.606 71.5799 242.411 71.641C241.857 71.8157 241.303 71.9924 240.752 72.1739C240.454 72.271 240.156 72.37 239.859 72.469C239.563 72.569 239.265 72.669 238.97 72.7709C238.68 72.8699 238.391 72.9699 238.103 73.0709C238.077 73.0796 238.052 73.0883 238.027 73.0971C237.822 73.1689 237.617 73.2408 237.413 73.3145C237.294 73.3563 237.175 73.398 237.056 73.4417C236.808 73.53 236.561 73.6193 236.315 73.7096C236.021 73.8164 235.727 73.9241 235.435 74.0338C235.142 74.1425 234.85 74.2522 234.557 74.3629C234.366 74.4357 234.176 74.5095 233.986 74.5842C233.742 74.6803 233.499 74.7784 233.257 74.8793C233.132 74.9308 233.007 74.9832 232.883 75.0366C232.725 75.1035 232.568 75.1705 232.412 75.2394C232.31 75.2841 232.207 75.3297 232.105 75.3753C232.014 75.4151 231.924 75.4559 231.834 75.4977C231.737 75.5413 231.641 75.586 231.545 75.6306C231.486 75.6569 231.427 75.685 231.368 75.7131C231.225 75.7801 231.08 75.8481 230.938 75.917C230.922 75.9238 230.905 75.9316 230.889 75.9403C230.764 76.0005 230.639 76.0607 230.515 76.1228C230.439 76.1597 230.364 76.1966 230.289 76.2354C230.167 76.2956 230.045 76.3577 229.923 76.4198C229.915 76.4237 229.905 76.4286 229.896 76.4334C229.735 76.5159 229.574 76.5994 229.414 76.6839C229.271 76.7586 229.129 76.8343 228.987 76.912C228.918 76.9479 228.85 76.9848 228.782 77.0226C228.665 77.0857 228.549 77.1498 228.434 77.2139C227.456 77.7565 226.502 78.3321 225.569 78.9359C225.45 79.0126 225.332 79.0893 225.213 79.1689C225.095 79.2456 224.977 79.3242 224.859 79.4038C224.763 79.4669 224.667 79.5319 224.572 79.597C224.51 79.6387 224.449 79.6805 224.388 79.7232C224.273 79.8008 224.159 79.8804 224.044 79.96C224.029 79.9697 224.014 79.9804 224 79.9911C223.847 80.0969 223.695 80.2046 223.543 80.3134C223.537 80.3182 223.531 80.3221 223.526 80.326C223.399 80.4162 223.272 80.5075 223.146 80.6007C223.017 80.6939 222.887 80.789 222.758 80.8851C222.666 80.9521 222.574 81.02 222.483 81.0899C221.432 81.8772 220.408 82.7023 219.408 83.5584C219.09 83.8293 218.776 84.104 218.464 84.3816C218.267 84.734 218.07 85.0873 217.875 85.4407C217.039 86.954 216.223 88.478 215.419 90.0079C214.414 91.9231 213.432 93.848 212.464 95.7729C212.078 96.5388 211.695 97.3037 211.314 98.0696C209.68 101.349 208.079 104.62 206.466 107.844C206.352 108.077 206.236 108.307 206.12 108.538C196.065 128.592 181.495 146.282 164.865 161.61C163.359 162.999 158.759 167.376 152.994 172H179.761C181.919 168.26 183.878 165.134 184.763 163.471C192.086 149.706 197.139 134.53 205.348 121.258C205.426 121.131 205.504 121.005 205.583 120.878C207.142 118.382 208.789 115.98 210.513 113.66C210.535 113.63 210.557 113.601 210.58 113.571C213.187 110.069 215.972 106.754 218.9 103.582C228.872 92.7812 240.508 83.6487 252.518 74.4687C253.596 73.6446 256.354 71.84 259.906 69.4598C260.071 69.3492 260.238 69.2366 260.407 69.124C261.081 68.6706 261.781 68.1989 262.502 67.7106C262.668 67.598 262.835 67.4844 263.003 67.3709C263.179 67.2515 263.356 67.1301 263.534 67.0088C263.357 67.0301 263.18 67.0515 263.003 67.0738ZM329.338 92.0454C329.199 91.8862 329.059 91.728 328.919 91.5697C328.792 91.4261 328.665 91.2824 328.538 91.1397C328.501 91.0989 328.465 91.0582 328.428 91.0174C328.311 90.8854 328.192 90.7534 328.073 90.6223C327.907 90.4369 327.739 90.2515 327.571 90.0671C327.332 89.804 327.091 89.5419 326.848 89.2808C326.727 89.1497 326.606 89.0197 326.484 88.8896C326.278 88.6683 326.07 88.4479 325.861 88.2276C325.766 88.1276 325.671 88.0286 325.576 87.9296C325.07 87.4005 324.557 86.8763 324.036 86.357C323.941 86.2609 323.845 86.1658 323.749 86.0707C323.249 85.5756 322.742 85.0854 322.227 84.601C322.087 84.468 321.946 84.336 321.804 84.2049C321.657 84.0671 321.51 83.9312 321.361 83.7963C321.337 83.773 321.312 83.7497 321.287 83.7274C321.178 83.6274 321.067 83.5274 320.956 83.4284C320.473 82.9916 319.982 82.5596 319.484 82.1344C319.355 82.0237 319.226 81.9131 319.096 81.8053C319.079 81.7888 319.062 81.7743 319.044 81.7607C318.924 81.6588 318.802 81.5578 318.68 81.4569C318.655 81.4345 318.629 81.4132 318.603 81.3928C318.491 81.2996 318.379 81.2074 318.267 81.1152C318.131 81.0045 317.995 80.8938 317.858 80.7841C317.692 80.6502 317.524 80.5172 317.356 80.3842C317.149 80.2211 316.941 80.0581 316.73 79.8969C316.604 79.7989 316.477 79.7028 316.349 79.6067C316.299 79.5678 316.248 79.53 316.197 79.4921C316.094 79.4135 315.99 79.3358 315.886 79.2592C315.815 79.2058 315.744 79.1534 315.672 79.1C315.579 79.031 315.486 78.9631 315.393 78.8961C315.154 78.7214 314.914 78.5496 314.673 78.3787C313.211 77.3449 311.724 76.3849 310.216 75.4977C310.02 75.3821 309.824 75.2676 309.627 75.155C309.591 75.187 309.555 75.2191 309.519 75.2511C302.076 81.8723 295.109 89.308 288.412 97.0135C288.155 97.3086 287.899 97.6037 287.644 97.8997C285.729 100.114 283.838 102.349 281.962 104.591C281.638 104.978 281.314 105.365 280.99 105.754C276.49 111.155 272.083 116.586 267.7 121.871C266.813 122.938 265.929 123.998 265.047 125.052C263.91 126.408 262.775 127.76 261.643 129.108C261.622 129.132 261.602 129.157 261.583 129.18C260.727 130.198 259.872 131.214 259.017 132.227C258.078 133.342 257.138 134.454 256.197 135.562C255.591 136.276 254.986 136.987 254.379 137.697C253.586 138.629 252.789 139.557 251.992 140.483C250.758 141.915 249.521 143.34 248.279 144.757C243.65 150.037 238.948 155.203 234.068 160.211C233.252 161.049 232.431 161.882 231.604 162.71C231.552 162.763 231.5 162.815 231.447 162.868C230.611 163.705 229.769 164.537 228.922 165.364C228.52 165.756 228.117 166.147 227.713 166.536C227.444 166.794 227.176 167.051 226.907 167.309C226.45 167.745 225.991 168.18 225.53 168.614C224.319 169.754 223.095 170.883 221.856 172H248.384C249.165 169.568 250.329 167.255 251.191 165.519C251.45 164.996 251.717 164.48 251.992 163.969C252.732 162.596 253.53 161.263 254.379 159.966C255.536 158.199 256.79 156.501 258.128 154.862C258.403 154.523 258.683 154.187 258.966 153.854C263.184 148.884 268.159 144.465 273.487 140.357C274.462 139.605 275.448 138.864 276.445 138.131C276.987 137.733 277.531 137.337 278.079 136.944C279.423 135.977 280.782 135.024 282.15 134.083C282.181 134.062 282.211 134.04 282.242 134.02C282.728 133.686 283.213 133.353 283.7 133.022C283.754 132.986 283.807 132.95 283.86 132.914C284.75 132.309 285.645 131.708 286.54 131.109C286.682 131.014 286.824 130.919 286.966 130.824C287.889 130.209 288.81 129.597 289.732 128.987C291.256 127.978 292.777 126.974 294.288 125.972C294.298 125.966 294.307 125.959 294.317 125.952C294.404 125.895 294.491 125.838 294.577 125.781C295.132 125.412 295.686 125.043 296.237 124.674C296.762 124.323 297.283 123.973 297.804 123.623C297.82 123.611 297.836 123.6 297.853 123.59C297.872 123.576 297.891 123.563 297.91 123.551C298.786 122.959 299.656 122.366 300.519 121.771C300.584 121.727 300.647 121.683 300.711 121.638C302.853 120.16 304.945 118.669 306.963 117.151C307.013 117.114 307.062 117.076 307.111 117.039C307.124 117.03 307.138 117.019 307.152 117.009C307.173 116.993 307.195 116.977 307.216 116.962C307.732 116.57 308.246 116.181 308.762 115.789C311.057 114.043 313.34 112.262 315.524 110.425C316.465 109.633 317.389 108.829 318.287 108.013C318.646 107.686 319.001 107.358 319.351 107.028C319.729 106.672 320.102 106.313 320.467 105.952C320.966 105.461 321.454 104.965 321.928 104.464C322.113 104.269 322.296 104.072 322.478 103.875C323.011 103.295 323.529 102.708 324.025 102.113C325.684 100.129 327.126 98.0628 328.266 95.8942C328.276 95.8758 328.285 95.8583 328.295 95.8409C328.312 95.8069 328.33 95.7729 328.347 95.7389C328.89 94.6915 329.363 93.6199 329.756 92.522C329.618 92.3628 329.479 92.2036 329.338 92.0454ZM334.384 172H342.035C344.694 169.158 347.426 166.366 350.232 163.613C350.455 163.395 350.712 163.157 351 162.902V154.019C345.885 160.332 340.305 166.344 334.384 172ZM349.782 114.715C349.619 114.575 349.456 114.432 349.294 114.289C349.097 114.116 348.902 113.944 348.709 113.768C348.574 113.647 348.44 113.525 348.306 113.402C348.165 113.273 348.023 113.143 347.883 113.012C347.119 112.3 346.369 111.572 345.633 110.83C345.539 110.735 345.446 110.641 345.353 110.546C345.218 110.409 345.083 110.271 344.95 110.134C344.814 109.994 344.679 109.854 344.544 109.713C344.391 109.554 344.24 109.395 344.089 109.236C343.824 108.955 343.561 108.675 343.298 108.391C343.15 108.232 343.003 108.072 342.857 107.912C342.669 107.707 342.482 107.501 342.296 107.294C334.268 116.875 327.849 127.719 320.392 137.695C311.338 149.808 300.263 160.03 287.633 168.338C285.711 169.603 283.753 170.824 281.76 172H303.233C303.902 171.031 304.613 170.054 305.372 169.066C305.507 168.889 305.644 168.712 305.782 168.535C314.506 157.369 324.641 148.455 335.253 140.031C340.425 135.924 345.71 131.934 351 127.855V115.739C350.59 115.404 350.183 115.062 349.782 114.715Z" fill="#EEF2F5" fill-opacity="0.5"/>
<path d="M232.591 72.8482L239.777 72.1482L240.538 75.4028L232.591 72.8482Z" fill="#D9805D"/>
<path d="M340.121 76.9045C340.121 76.9045 309.193 77.9107 304.952 76.9045C300.711 75.8963 293.978 75.1709 291.484 76.9045C288.989 78.6381 260.977 81.1985 254.651 80.9645C250.551 80.8124 246.343 76.5613 244.415 72.944L240.414 65.4344C239.975 65.1087 239.34 65.331 239.21 65.8614C238.923 67.0198 239.182 75.2216 240.921 78.6966C242.498 81.8478 241.548 87.3684 243.878 88.008C246.491 88.7237 247.278 87.4503 248.582 86.8633C248.582 86.8633 254.567 87.3625 258.808 89.6051C263.049 91.8476 283.751 93.2185 294.975 89.2931C294.975 89.2931 327.408 99.2461 345.127 93.3784L340.121 76.9045Z" fill="#A36046"/>
<path d="M341.995 82.0859C341.995 82.0859 311.381 86.5944 307.054 86.0738C302.727 85.5531 295.953 85.596 293.671 87.6006C291.39 89.6053 263.85 95.3248 257.54 95.8103C253.449 96.1243 251.205 97.5166 247.606 94.5038L240.26 87.7957C239.785 87.5226 239.182 87.8152 239.112 88.3573C238.958 89.5409 240.541 94.7534 243.948 98.2089C246.423 100.719 245.248 103.659 247.637 104.028C250.315 104.441 250.951 103.088 252.181 102.359C252.181 102.359 258.184 102.175 262.651 103.922C267.119 105.67 287.844 104.685 298.549 99.5115C298.549 99.5115 331.903 105.722 348.841 97.8832L341.995 82.0859Z" fill="#A36046"/>
<path d="M264.894 108.302H260.237V172H264.894V108.302Z" fill="#A4A8B3"/>
<path d="M325.421 141.441H262.563V143.465H325.421V141.441Z" fill="#A4A8B3"/>
<path d="M242.618 118.645L242.618 118.645L241.111 110.285C240.506 106.923 242.742 103.705 246.109 103.1L246.109 103.1L302.208 93.0107C305.573 92.4062 308.794 94.642 309.399 98.004L309.497 97.9863L309.399 98.004L310.906 106.364C311.511 109.726 309.275 112.942 305.908 113.549L249.809 123.638C246.444 124.243 243.223 122.009 242.618 118.645Z" fill="#E1FCD6" stroke="#2F353B" stroke-width="0.2"/>
<path d="M370.088 112.451H313.087C309.666 112.451 306.895 109.682 306.895 106.264V97.7699C306.895 94.3521 309.666 91.5829 313.087 91.5829H370.088C373.507 91.5829 376.28 94.3522 376.28 97.7699V106.264C376.28 109.682 373.508 112.451 370.088 112.451Z" fill="#E1FCD6" stroke="#2F353B" stroke-width="0.2"/>
<path d="M320.743 93.6258C320.743 93.6258 313.578 95.2267 314.833 85.4375C316.086 75.6484 309.589 72.306 314.833 72.15C320.077 71.994 345.789 75.8824 354.216 73.1075C362.646 70.3326 365.417 66.6782 365.417 66.6782L403.426 54.937C403.426 54.937 403.662 64.5741 401.334 68.6711C399.005 72.7701 386.345 85.4375 386.345 85.4375C386.345 85.4375 359.642 107.506 320.743 93.6258Z" fill="white"/>
<path d="M324.26 89.605L326.149 85.1725C327.211 82.6784 329.379 80.8259 332.01 80.1629L335.547 79.2717C336.776 78.9617 338.037 78.8057 339.304 78.8057H343.88C343.88 78.8057 344.796 82.2943 343.381 83.5404C341.97 84.7864 324.26 89.605 324.26 89.605Z" fill="#A36046"/>
<path d="M342.635 85.34C342.635 85.34 344.52 80.6326 342.912 78.3628C341.304 76.093 347.18 77.3098 348.178 76.9237C349.175 76.5356 350.672 82.7387 348.898 84.8993C347.124 87.0561 342.635 85.34 342.635 85.34Z" fill="white"/>
<path d="M349.722 82.1929C349.659 82.191 349.612 82.1422 349.614 82.0837C349.614 82.0369 349.698 77.4114 348.152 77.0273C347.356 76.8284 347.251 76.8674 347.077 76.9317C346.876 77.0058 346.601 77.1072 345.483 77.0117C344.107 76.8966 343.131 77.0955 342.871 77.546C342.752 77.7507 342.797 78.0042 343.002 78.3006C343.035 78.3494 343.023 78.4157 342.975 78.4508C342.926 78.484 342.859 78.4723 342.824 78.4235C342.504 77.9633 342.571 77.6337 342.684 77.4387C342.99 76.9064 344.017 76.6724 345.5 76.7972C346.572 76.8869 346.821 76.7952 347.003 76.7289C347.233 76.6451 347.382 76.6119 348.205 76.8167C349.917 77.2418 349.835 81.8887 349.831 82.0876C349.827 82.1461 349.78 82.1929 349.722 82.1929Z" fill="#2F353B"/>
<path d="M441.832 47.0894L441.832 47.0894C436.499 51.2341 428.974 57.9391 423.953 66.0232L424.038 66.0759L423.953 66.0232C421.822 69.4554 420.415 73.3704 419.504 77.3149C418.25 82.7452 418.93 88.4023 421.112 93.5268C422.002 95.6168 422.495 97.9162 422.495 100.332V154.487C422.495 164.102 414.694 171.898 405.069 171.898H336.749C327.125 171.898 319.323 164.104 319.323 154.487V100.332C319.323 90.7173 327.123 82.9209 336.749 82.9209H374.424C378.926 82.9209 383.395 81.9958 387.478 80.0957C390.421 78.7262 393.48 76.7341 396.194 73.8431C398.221 71.6845 400.362 68.5276 401.664 64.9154C402.964 61.307 403.428 57.2382 402.095 53.256L402.094 53.2383C402.094 53.217 402.093 53.1849 402.093 53.1427C402.092 53.0582 402.093 52.9327 402.099 52.77C402.11 52.4447 402.141 51.9708 402.218 51.3787C402.371 50.1945 402.71 48.5378 403.449 46.6513C404.928 42.8797 408.011 38.1858 414.432 34.5097C415.157 34.0949 415.822 33.6858 416.443 33.303C416.766 33.1042 417.077 32.9125 417.379 32.7308C418.266 32.1977 419.078 31.7485 419.894 31.4441C421.518 30.8387 423.165 30.8024 425.444 31.8597L425.486 31.769L425.444 31.8597L441.054 39.0987C441.055 39.0989 441.055 39.0992 441.056 39.0995C444.168 40.6739 444.588 44.9509 441.832 47.0894Z" fill="#E1FCD6" stroke="#2F353B" stroke-width="0.2"/>
<path d="M401.931 54.6917L402.329 53.3208L405.442 42.5858L395.793 40.6631L395.055 40.5168L390.814 47.2776L387.799 52.0845L385.271 56.1152C385.271 56.1152 388.782 58.4494 394.038 57.1936C394.038 57.1897 399.226 56.1717 401.931 54.6917Z" fill="#A36046"/>
<path d="M395.055 40.5168L390.814 47.2776C394.708 48.0557 397.745 44.376 397.745 44.376L395.793 40.6651L395.055 40.5168Z" fill="#754532"/>
<path d="M392.174 29.6727C384.965 37.6757 386.505 41.525 389.871 43.7676C392.721 45.665 401.195 47.2211 406.197 41.6069C411.199 35.9928 415.118 30.2577 410.382 26.0476C405.645 21.8336 396.226 22.169 392.174 29.6727Z" fill="#A36046"/>
<path d="M393.417 28.8555C393.417 28.8555 389.153 31.6479 388.341 32.2193C387.266 32.9739 388.239 33.8105 389.729 35.078C390.919 36.094 393.417 28.8555 393.417 28.8555Z" fill="#A36046"/>
<path d="M394.942 27.2974C394.637 27.5022 394.83 28.327 395.375 29.1402C395.919 29.9534 396.608 30.4487 396.913 30.2439C397.217 30.0392 397.024 29.2143 396.48 28.4011C395.935 27.588 395.246 27.0927 394.942 27.2974Z" fill="#2F353B"/>
<path d="M395.211 31.6908C393.601 33.3191 391.661 32.3538 392.299 30.082C392.325 29.9943 392.459 30.0157 392.459 30.1054C392.582 32.1276 393.365 32.4104 395.116 31.5621C395.192 31.5172 395.276 31.6264 395.211 31.6908Z" fill="#2F353B"/>
<path d="M388.304 37.1139C387.959 37.1139 387.66 37.069 387.637 37.0671C387.578 37.0593 387.537 37.0027 387.547 36.9442C387.555 36.8857 387.612 36.8467 387.67 36.8545C387.68 36.8565 388.599 36.991 389.023 36.7863C389.075 36.7609 389.14 36.7824 389.167 36.835C389.192 36.8877 389.171 36.952 389.118 36.9793C388.9 37.0846 388.587 37.1139 388.304 37.1139Z" fill="#2F353B"/>
<path d="M405.007 45.9806C408.44 45.6121 409.213 44.3718 411.898 42.2911C414.211 40.4971 416.859 38.1356 417.858 35.3978C418.491 33.6642 418.975 32.1646 418.871 30.3238C418.782 28.7169 418.665 27.2135 419.053 25.6359C420.062 21.5408 423.194 17.9391 420.443 13.6665C418.233 10.2364 414.039 7.8808 411.324 10.9521C407.027 11.3109 406.794 16.5663 404.05 18.1809C401.622 19.6083 397.165 21.3633 397.128 24.7155C397.108 26.4919 398.699 27.1296 399.727 28.3308C400.84 29.6276 401.035 31.211 401.103 32.7847C401.103 32.7828 398.83 46.6456 405.007 45.9806Z" fill="white"/>
<path d="M415.854 18.9903C415.831 18.9903 415.809 18.9825 415.79 18.9688C415.552 18.7894 409.993 14.5656 411.381 11.9116C411.408 11.859 411.473 11.8395 411.525 11.8668C411.578 11.8941 411.598 11.9584 411.57 12.0111C410.269 14.5052 415.862 18.7563 415.919 18.7992C415.966 18.8343 415.975 18.9025 415.94 18.9493C415.919 18.9766 415.888 18.9903 415.854 18.9903Z" fill="#2F353B"/>
<path d="M413.356 28.2471C413.341 28.2471 413.323 28.2432 413.308 28.2354C413.237 28.2003 406.268 24.5869 406.824 19.1775C406.83 19.119 406.884 19.0741 406.941 19.0819C407 19.0878 407.043 19.1404 407.037 19.1989C406.496 24.4621 413.335 28.0092 413.405 28.0443C413.458 28.0716 413.479 28.136 413.452 28.1886C413.432 28.2257 413.395 28.2471 413.356 28.2471Z" fill="#2F353B"/>
<path d="M407.944 43.5764C407.915 43.5764 407.886 43.5647 407.864 43.5413C407.825 43.4965 407.829 43.4282 407.874 43.3892C407.936 43.3327 414.23 37.7243 416.159 33.8984C417.064 32.1043 417.07 29.6629 417.076 27.3014C417.084 24.5304 417.09 21.9115 418.473 20.3554C418.512 20.3105 418.581 20.3066 418.626 20.3456C418.671 20.3846 418.674 20.4529 418.635 20.4977C417.306 21.9915 417.3 24.5714 417.293 27.3014C417.287 29.6863 417.279 32.1531 416.352 33.9939C414.404 37.8569 408.081 43.4926 408.018 43.5491C407.997 43.5667 407.969 43.5764 407.944 43.5764Z" fill="#2F353B"/>
<path d="M373.232 61.3606C373.232 61.3606 379.44 56.3002 384.26 54.1337C389.069 51.9731 400.596 52.8077 403.426 50.647C406.256 48.4864 405.585 56.9593 403.426 58.2054C401.267 59.4515 383.808 59.9507 382.81 62.1932C381.813 64.4358 363.106 69.4201 363.356 66.9279C363.606 64.4338 369.553 63.529 373.232 61.3606Z" fill="white"/>
<path d="M367.023 67.7139C366.964 67.7139 366.916 67.6671 366.916 67.6066C366.916 67.5481 366.962 67.4994 367.023 67.4994C375.616 67.4331 382.061 62.7783 384.178 61.2475L384.268 61.1832C386.224 59.7714 400.869 58.6677 401.492 58.6209C401.548 58.617 401.603 58.6599 401.607 58.7203C401.611 58.7788 401.566 58.8315 401.507 58.8354C401.355 58.8471 386.3 59.982 384.393 61.3587L384.303 61.4231C382.172 62.9616 375.684 67.6476 367.023 67.7139Z" fill="#2F353B"/>
<path d="M307.827 92.1481C307.819 92.1481 307.811 92.1481 307.803 92.1461C304.921 91.524 300.281 90.5744 297.772 90.0654C296.62 89.8314 295.445 89.7846 294.276 89.927L280.651 91.5923C280.595 91.6001 280.538 91.5572 280.532 91.4987C280.526 91.4402 280.567 91.3856 280.626 91.3797L294.251 89.7144C295.441 89.5682 296.64 89.6169 297.814 89.8548C300.324 90.3638 304.965 91.3134 307.85 91.9355C307.909 91.9472 307.946 92.0057 307.932 92.0622C307.92 92.1149 307.875 92.1481 307.827 92.1481Z" fill="#2F353B"/>
<path d="M326.012 106.523C325.361 106.523 324.767 106.486 324.246 106.408C323.069 106.231 322.253 105.687 321.822 104.788C320.296 101.615 324.01 95.147 324.17 94.874C324.199 94.8233 324.266 94.8057 324.316 94.835C324.367 94.8642 324.385 94.9305 324.355 94.9812C324.316 95.0475 320.54 101.625 322.015 104.696C322.415 105.527 323.177 106.032 324.277 106.198C328.399 106.818 337.34 104.69 345.229 102.813C349.032 101.908 352.627 101.052 355.586 100.51C364.8 98.8228 381.327 98.3489 381.493 98.345C381.553 98.345 381.602 98.3918 381.604 98.4484C381.606 98.5069 381.559 98.5576 381.501 98.5595C381.335 98.5634 364.824 99.0353 355.627 100.72C352.672 101.26 349.081 102.116 345.279 103.021C338.025 104.745 330.556 106.522 326.012 106.523Z" fill="#2F353B"/>
<path d="M368.573 78.162C368.28 78.162 367.899 78.0781 367.456 77.9085C366.178 77.421 365.76 76.834 365.454 76.403C365.335 76.2353 365.231 76.0891 365.099 75.9799C364.636 75.7147 356.492 76.7424 351.133 77.499C351.072 77.5068 351.019 77.4658 351.012 77.4073C351.004 77.3488 351.045 77.2942 351.103 77.2864C353.375 76.9666 364.728 75.391 365.237 75.8141C365.39 75.9409 365.507 76.1047 365.63 76.2782C365.936 76.7092 366.317 77.2435 367.534 77.7076C368.389 78.0333 368.879 77.9865 368.971 77.8071C369.049 77.655 368.862 77.3254 368.352 76.9958C367.49 76.4342 366.863 75.5021 367.039 75.0439C367.086 74.9229 367.23 74.728 367.679 74.7962L367.866 74.8254C368.686 74.9503 369.24 75.0361 369.56 75.2486C369.453 75.0224 369.252 74.6851 368.912 74.3087C368.862 74.2522 368.842 74.18 368.858 74.1059C368.959 73.6398 370.64 72.891 373.6 71.6079C376.61 70.3033 380.732 68.5171 380.689 67.6123C380.658 66.9356 380.8 66.4247 381.112 66.0971C381.45 65.7441 381.86 65.7402 381.875 65.7402C381.934 65.7402 381.983 65.789 381.983 65.8475C381.983 65.906 381.934 65.9547 381.875 65.9547C381.873 65.9547 381.536 65.9606 381.265 66.2492C380.995 66.5339 380.874 66.9902 380.903 67.6025C380.95 68.5775 377.941 69.9601 373.684 71.8048C371.559 72.7272 369.148 73.7705 369.065 74.1507C369.592 74.7475 369.923 75.4066 369.859 75.586C369.845 75.623 369.8 75.662 369.761 75.6679C369.681 75.6796 369.619 75.6133 369.568 75.545C369.359 75.2681 368.752 75.1745 367.831 75.0341L367.644 75.0049C367.488 74.9815 367.289 74.9814 367.238 75.116C367.115 75.4378 367.657 76.2841 368.467 76.8125C369.045 77.1889 369.311 77.6062 369.16 77.9007C369.072 78.0762 368.867 78.162 368.573 78.162Z" fill="#2F353B"/>
<path d="M211.862 120.843V166.088C211.862 169.122 209.401 171.583 206.362 171.583H173.691C173.547 171.583 173.406 171.577 173.264 171.565C172.53 171.509 171.833 171.308 171.209 170.99C171.01 170.891 170.818 170.777 170.633 170.655C169.161 169.668 168.191 167.989 168.191 166.086V120.841C168.191 119.012 169.085 117.393 170.459 116.393C170.645 116.258 170.838 116.135 171.039 116.026C171.825 115.591 172.729 115.344 173.691 115.344H206.362C209.401 115.346 211.862 117.807 211.862 120.843Z" fill="#D68D60"/>
<path d="M213.342 159.184L213.119 162.238L212.848 167.751C212.819 168.344 213.178 168.888 213.736 169.091C215.975 169.902 221.988 171.606 229.127 169.746C238.198 167.382 237.917 166.403 233.752 164.859C233.132 164.629 232.48 164.405 231.812 164.18C227.997 162.895 220.688 162.09 220.471 159.184H213.342Z" fill="#D9805D"/>
<path d="M213.738 169.092C215.976 169.904 221.989 171.608 229.129 169.748C238.2 167.384 237.919 166.405 233.754 164.861C233.133 164.631 232.482 164.406 231.814 164.182C225.53 168.607 215.028 166.563 213.121 162.24L212.85 167.753C212.818 168.346 213.179 168.89 213.738 169.092Z" fill="#A36046"/>
<path d="M212.903 119.288L184.849 121.246C154.36 121.471 172.171 91.4849 172.171 91.4849L197.022 94.9384C197.022 94.9384 223.943 103.173 231.791 107.216C238.53 110.687 223.737 159.547 223.737 159.547H211.336C211.336 159.547 209.111 128.832 213.639 120.41C213.922 119.879 213.502 119.248 212.903 119.288Z" fill="#D7D991"/>
<path d="M182.004 29.5127L182.716 28.2764L188.29 18.5867L196.374 24.1911L196.991 24.6181L195.065 32.3617L193.694 37.8667L192.547 42.4824C192.547 42.4824 188.427 41.5776 185.685 36.9248C185.681 36.9248 182.816 32.4865 182.004 29.5127Z" fill="#D9805D"/>
<path d="M196.989 24.618L195.062 32.3616C191.799 30.1015 192.342 25.3629 192.342 25.3629L196.37 24.1909L196.989 24.618Z" fill="#AD5B3B"/>
<path d="M199.53 76.0718L202.947 62.2168C205.307 54.4985 200.904 47.1313 194.881 39.374C194.491 38.8709 194.095 38.3698 193.692 37.8647C193.692 37.8647 190.808 37.2563 188.435 35.0391C186.436 33.1749 182.712 28.2744 182.712 28.2744C182.517 28.5611 182.322 28.8477 182.133 29.1363C164.165 56.2555 170.27 91.5921 170.27 91.5921C183.499 100.478 197.237 93.4914 197.237 93.4914C197.237 93.4914 198.109 81.8322 199.53 76.0718Z" fill="#7F8F5E"/>
<path d="M241.358 74.6484C243.802 74.8161 247.401 75.3153 249.153 75.8769C249.632 76.0309 249.852 76.8343 249.06 77.004C248.552 77.1113 245.229 77.5461 239.342 76.807C239.229 76.7934 239.157 76.9319 239.241 77.006C239.276 77.0372 239.331 77.0703 239.409 77.1015C239.51 77.1444 245.841 78.3086 245.951 78.3339C248.958 79.0457 251.398 79.2777 251.095 80.3347C250.75 81.5437 241.478 79.8238 238.96 79.658C238.749 79.6443 238.689 79.7321 238.681 79.8277C238.673 79.9466 238.763 80.046 238.88 80.0636C239.545 80.1611 242.272 80.5745 244.557 81.1712C247.258 81.8752 249.472 82.5128 249.846 83.0901C249.907 83.1837 249.92 83.2753 249.879 83.365C249.805 83.5269 249.598 83.6419 249.284 83.7121C247.738 84.067 243.574 83.404 239.573 82.585C239.175 82.5051 238.778 82.4212 238.388 82.3373C237.765 82.2047 237.957 82.9984 242.065 84.6286C242.293 84.7203 242.535 84.812 242.789 84.9095C246.661 86.3739 245.834 86.7678 245.834 86.7678C245.744 86.8263 245.631 86.8712 245.5 86.9024C245.336 86.9433 245.139 86.9648 244.92 86.9706C242.684 87.0272 237.974 85.3229 237.609 85.2936C231.128 84.7983 227.029 80.947 227.029 80.947C227.029 80.947 202.298 92.5458 196.095 88.402C189.893 84.2581 182.997 64.8689 182.997 64.8689C182.997 64.8689 187.724 58.3929 194.052 56.4097C194.052 56.4097 201.115 74.857 202.356 75.1749C203.597 75.4927 227.578 73.5797 227.578 73.5797C227.578 73.5797 231.979 72.5872 233.682 72.9187C235.386 73.2463 240.137 74.545 241.358 74.6484Z" fill="#D9805D"/>
<path d="M206.8 19.1637C206.039 29.9045 202.198 31.4685 198.246 30.6046C194.901 29.8733 187.898 24.8578 188.47 17.3639C189.042 9.86986 190.453 3.07007 196.774 3.55173C203.096 4.03339 209.392 11.0418 206.8 19.1637Z" fill="#D9805D"/>
<path d="M183.723 25.5463C183.904 25.7881 184.248 25.8447 184.55 25.8564C185.636 25.8993 190.417 24.544 192.306 22.5784C192.669 22.2001 192.923 21.8179 193.091 21.4376C194.307 18.7037 196.504 16.543 199.328 15.5426C202.221 14.5189 205.121 12.9803 206.095 10.7768C208.257 5.88217 197.186 -4.10008 188.916 1.82413C183.212 5.91726 175.208 14.2732 183.723 25.5463Z" fill="#2F353B"/>
<path d="M196.964 18.9981C196.657 20.72 195.371 21.931 194.093 21.7028C192.814 21.4747 192.026 19.8971 192.33 18.1752C192.637 16.4533 193.921 15.2423 195.201 15.4705C196.481 15.6967 197.27 17.2762 196.964 18.9981Z" fill="#D9805D"/>
<path d="M206.525 17.7012C206.525 17.7012 207.473 22.7069 207.626 23.6878C207.829 24.9865 206.55 24.8637 204.602 24.6745C203.045 24.5224 206.525 17.7012 206.525 17.7012Z" fill="#D9805D"/>
<path d="M206.589 15.5231C206.653 15.8839 205.925 16.3168 204.961 16.4904C203.997 16.6639 203.164 16.5118 203.097 16.151C203.033 15.7903 203.761 15.3554 204.725 15.1838C205.691 15.0103 206.524 15.1624 206.589 15.5231Z" fill="#2F353B"/>
<path d="M203.263 18.3118C204.526 16.7186 206.73 16.9682 206.435 19.3102C206.421 19.3999 206.285 19.396 206.273 19.3083C205.865 17.3348 204.823 17.5727 203.367 18.4327C203.295 18.4795 203.207 18.3781 203.263 18.3118Z" fill="#2F353B"/>
<path d="M205.951 18.8752C205.767 19.4953 205.301 19.9048 204.909 19.7897C204.516 19.6747 204.35 19.076 204.534 18.4559C204.719 17.8358 205.184 17.4263 205.576 17.5413C205.966 17.6583 206.134 18.2551 205.951 18.8752Z" fill="#2F353B"/>
<path d="M204.728 27.1473C204.72 27.1473 204.714 27.1473 204.709 27.1453C204.674 27.1395 203.835 26.9718 203.659 26.4336C203.642 26.377 203.671 26.3166 203.728 26.299C203.784 26.2815 203.845 26.3107 203.862 26.3673C203.999 26.7846 204.74 26.9328 204.748 26.9347C204.806 26.9464 204.843 27.003 204.833 27.0595C204.824 27.1122 204.779 27.1473 204.728 27.1473Z" fill="#2F353B"/>
<path d="M181.018 18.4697C181.018 18.4697 174.345 19.4292 173.848 25.8643C173.348 32.2994 174.347 44.7348 169.359 48.4867C169.359 48.4867 169.449 49.9687 173.02 48.4867C176.592 47.0046 182.827 33.4733 180.583 28.2765C178.339 23.0796 182.004 20.878 182.004 20.878L181.018 18.4697Z" fill="#2F353B"/>
<path d="M194.881 39.376C193.027 38.8865 190.005 37.9856 188.434 36.9384C186.58 35.7002 183.415 31.0786 182.132 29.1402C182.322 28.8497 182.517 28.565 182.712 28.2783C182.712 28.2783 186.436 33.1768 188.434 35.043C190.808 37.2602 193.692 37.8686 193.692 37.8686C194.094 38.3717 194.49 38.8729 194.881 39.376Z" fill="white"/>
<path d="M182.653 65.1261C182.653 65.1261 189.436 58.108 194.5 56.3334L193.544 53.6755C193.544 53.6755 185.23 57.6205 181.488 62.9382L182.653 65.1261Z" fill="white"/>
<path d="M180.575 62.17C180.544 62.17 180.513 62.1563 180.491 62.129L178.745 59.9294C178.708 59.8826 178.715 59.8163 178.762 59.7792C178.809 59.7422 178.875 59.75 178.913 59.7968L180.659 61.9964C180.696 62.0432 180.689 62.1095 180.642 62.1466C180.622 62.1641 180.599 62.17 180.575 62.17Z" fill="white"/>
<path d="M193.188 52.9951C193.151 52.9951 193.114 52.9756 193.094 52.9405C192.874 52.5544 191.794 50.6063 192.225 50.0779C192.262 50.0311 192.33 50.0252 192.375 50.0622C192.422 50.0993 192.428 50.1675 192.39 50.2124C192.129 50.5342 192.798 51.9908 193.28 52.8333C193.309 52.884 193.291 52.9503 193.241 52.9795C193.225 52.9893 193.206 52.9951 193.188 52.9951Z" fill="white"/>
<path d="M177.747 47.346C177.722 47.346 177.696 47.3382 177.677 47.3187C177.632 47.2797 177.628 47.2115 177.667 47.1666C177.962 46.8312 184.9 38.9745 187.279 40.3317C189.621 41.6694 190.113 43.6487 190.132 43.7326C190.146 43.7911 190.111 43.8477 190.052 43.8613C189.994 43.873 189.937 43.8398 189.924 43.7813C189.92 43.7618 189.43 41.806 187.172 40.517C184.947 39.2475 177.899 47.2251 177.827 47.307C177.808 47.3324 177.776 47.346 177.747 47.346Z" fill="white"/>
</svg>
