<svg width="277" height="172" viewBox="0 0 277 172" fill="none" xmlns="http://www.w3.org/2000/svg">
<path d="M65.5912 72.8484L72.7772 72.1483L73.5384 75.4029L65.5912 72.8484Z" fill="#D9805D"/>
<path d="M173.121 76.9045C173.121 76.9045 142.193 77.9107 137.952 76.9045C133.711 75.8963 126.978 75.1709 124.484 76.9045C121.989 78.6381 93.9769 81.1985 87.6515 80.9645C83.551 80.8124 79.3432 76.5613 77.4149 72.944L73.414 65.4344C72.9749 65.1087 72.3406 65.331 72.2098 65.8614C71.9229 67.0198 72.1825 75.2216 73.9214 78.6966C75.4984 81.8478 74.5479 87.3684 76.8782 88.008C79.4915 88.7237 80.2781 87.4503 81.5818 86.8633C81.5818 86.8633 87.5676 87.3625 91.8086 89.6051C96.0496 91.8476 116.751 93.2185 127.975 89.2931C127.975 89.2931 160.408 99.2461 178.128 93.3784L173.121 76.9045Z" fill="#A36046"/>
<path d="M174.995 82.0859C174.995 82.0859 144.381 86.5944 140.054 86.0738C135.727 85.5531 128.953 85.596 126.671 87.6006C124.39 89.6053 96.8497 95.3248 90.5399 95.8103C86.4492 96.1243 84.2048 97.5166 80.6059 94.5038L73.2598 87.7957C72.7855 87.5226 72.1824 87.8152 72.1122 88.3573C71.958 89.5409 73.5408 94.7534 76.9485 98.2089C79.4232 100.719 78.2483 103.659 80.6371 104.028C83.3148 104.441 83.9511 103.088 85.1806 102.359C85.1806 102.359 91.184 102.175 95.6514 103.922C100.119 105.67 120.844 104.685 131.549 99.5115C131.549 99.5115 164.903 105.722 181.842 97.8832L174.995 82.0859Z" fill="#A36046"/>
<path d="M97.8936 108.302H93.2369V172H97.8936V108.302Z" fill="#A4A8B3"/>
<path d="M158.421 141.441H95.5631V143.465H158.421V141.441Z" fill="#A4A8B3"/>
<path d="M75.618 118.645L75.618 118.645L74.1113 110.285C73.5063 106.923 75.7419 103.705 79.1088 103.1L79.1089 103.1L135.208 93.0107C138.573 92.4062 141.794 94.642 142.399 98.004L142.497 97.9863L142.399 98.004L143.906 106.364C144.511 109.726 142.275 112.942 138.908 113.549L82.809 123.638C79.4438 124.243 76.223 122.009 75.618 118.645Z" fill="#E1FCD6" stroke="#2F353B" stroke-width="0.2"/>
<path d="M203.088 112.451H146.087C142.666 112.451 139.895 109.682 139.895 106.264V97.7701C139.895 94.3524 142.666 91.5832 146.087 91.5832H203.088C206.507 91.5832 209.28 94.3524 209.28 97.7701V106.264C209.28 109.682 206.509 112.451 203.088 112.451Z" fill="#E1FCD6" stroke="#2F353B" stroke-width="0.2"/>
<path d="M153.743 93.626C153.743 93.626 146.578 95.227 147.833 85.4378C149.086 75.6486 142.589 72.3062 147.833 72.1502C153.078 71.9942 178.789 75.8826 187.216 73.1077C195.646 70.3328 198.417 66.6784 198.417 66.6784L236.426 54.9373C236.426 54.9373 236.662 64.5743 234.334 68.6714C232.005 72.7704 219.345 85.4378 219.345 85.4378C219.345 85.4378 192.642 107.506 153.743 93.626Z" fill="white"/>
<path d="M157.26 89.6051L159.149 85.1727C160.211 82.6786 162.379 80.826 165.01 80.163L168.547 79.2718C169.776 78.9618 171.037 78.8058 172.304 78.8058H176.88C176.88 78.8058 177.796 82.2944 176.381 83.5405C174.97 84.7866 157.26 89.6051 157.26 89.6051Z" fill="#A36046"/>
<path d="M175.635 85.3403C175.635 85.3403 177.52 80.6329 175.912 78.363C174.304 76.0932 180.18 77.31 181.178 76.9239C182.175 76.5359 183.672 82.7389 181.898 84.8996C180.124 87.0563 175.635 85.3403 175.635 85.3403Z" fill="white"/>
<path d="M182.722 82.193C182.659 82.1911 182.612 82.1423 182.614 82.0838C182.614 82.037 182.698 77.4115 181.153 77.0274C180.356 76.8285 180.251 76.8675 180.077 76.9318C179.876 77.0059 179.601 77.1074 178.483 77.0118C177.107 76.8967 176.131 77.0956 175.871 77.5461C175.752 77.7509 175.797 78.0044 176.002 78.3008C176.035 78.3495 176.023 78.4158 175.975 78.4509C175.926 78.4841 175.86 78.4724 175.824 78.4236C175.504 77.9634 175.571 77.6339 175.684 77.4388C175.99 76.9065 177.017 76.6725 178.5 76.7973C179.572 76.887 179.821 76.7953 180.003 76.729C180.233 76.6452 180.382 76.612 181.205 76.8168C182.917 77.2419 182.835 81.8888 182.831 82.0877C182.827 82.1462 182.78 82.193 182.722 82.193Z" fill="#2F353B"/>
<path d="M274.832 47.0894L274.832 47.0894C269.499 51.2341 261.974 57.9391 256.953 66.0232L257.038 66.0759L256.953 66.0232C254.822 69.4554 253.415 73.3704 252.504 77.3149C251.25 82.7452 251.93 88.4023 254.112 93.5268L254.204 93.4876L254.112 93.5268C255.002 95.6168 255.495 97.9162 255.495 100.332V154.487C255.495 164.102 247.695 171.898 238.069 171.898H169.749C160.126 171.898 152.323 164.104 152.323 154.487V100.332C152.323 90.7173 160.124 82.9209 169.749 82.9209H207.424C211.927 82.9209 216.395 81.9958 220.478 80.0957C223.421 78.7262 226.481 76.7341 229.194 73.8431C231.221 71.6845 233.362 68.5276 234.664 64.9154C235.964 61.307 236.428 57.2382 235.095 53.256L235.094 53.2383C235.094 53.2294 235.094 53.2185 235.094 53.2059C235.093 53.1883 235.093 53.1672 235.093 53.1427C235.092 53.0582 235.093 52.9327 235.099 52.77C235.11 52.4447 235.141 51.9708 235.218 51.3787C235.372 50.1945 235.71 48.5378 236.45 46.6513C237.928 42.8797 241.011 38.1858 247.432 34.5097C248.157 34.0949 248.822 33.6858 249.443 33.303C249.766 33.1042 250.077 32.9125 250.379 32.7308C251.266 32.1977 252.079 31.7485 252.895 31.4441C254.518 30.8387 256.165 30.8024 258.444 31.8597L258.486 31.769L258.444 31.8597L274.054 39.0987C274.055 39.0989 274.055 39.0992 274.056 39.0995C277.168 40.6739 277.588 44.9509 274.832 47.0894Z" fill="#E1FCD6" stroke="#2F353B" stroke-width="0.2"/>
<path d="M234.931 54.6917L235.329 53.3208L238.442 42.5858L228.793 40.6631L228.055 40.5168L223.814 47.2776L220.799 52.0845L218.271 56.1152C218.271 56.1152 221.783 58.4494 227.038 57.1936C227.038 57.1897 232.226 56.1717 234.931 54.6917Z" fill="#A36046"/>
<path d="M228.055 40.5168L223.814 47.2776C227.708 48.0557 230.745 44.376 230.745 44.376L228.793 40.6651L228.055 40.5168Z" fill="#754532"/>
<path d="M225.175 29.6727C217.965 37.6757 219.505 41.525 222.872 43.7676C225.721 45.665 234.195 47.2211 239.197 41.6069C244.199 35.9928 248.118 30.2577 243.382 26.0476C238.645 21.8336 229.226 22.169 225.175 29.6727Z" fill="#A36046"/>
<path d="M226.417 28.8556C226.417 28.8556 222.153 31.648 221.341 32.2194C220.266 32.9741 221.24 33.8106 222.729 35.0782C223.919 36.0941 226.417 28.8556 226.417 28.8556Z" fill="#A36046"/>
<path d="M227.942 27.2975C227.637 27.5023 227.83 28.3272 228.375 29.1403C228.92 29.9535 229.608 30.4488 229.913 30.244C230.217 30.0393 230.024 29.2144 229.48 28.4013C228.935 27.5881 228.246 27.0928 227.942 27.2975Z" fill="#2F353B"/>
<path d="M228.211 31.6909C226.601 33.3192 224.661 32.3539 225.299 30.0821C225.325 29.9944 225.459 30.0158 225.459 30.1055C225.582 32.1277 226.365 32.4105 228.116 31.5622C228.192 31.5174 228.276 31.6266 228.211 31.6909Z" fill="#2F353B"/>
<path d="M221.305 37.114C220.959 37.114 220.66 37.0691 220.637 37.0672C220.578 37.0594 220.538 37.0028 220.547 36.9443C220.555 36.8858 220.612 36.8468 220.67 36.8546C220.68 36.8566 221.599 36.9911 222.023 36.7864C222.075 36.761 222.14 36.7825 222.167 36.8351C222.193 36.8878 222.171 36.9521 222.118 36.9794C221.9 37.0847 221.587 37.114 221.305 37.114Z" fill="#2F353B"/>
<path d="M238.007 45.9807C241.44 45.6122 242.213 44.372 244.898 42.2913C247.211 40.4972 249.859 38.1357 250.859 35.3979C251.491 33.6643 251.975 32.1647 251.872 30.3239C251.782 28.7171 251.665 27.2136 252.053 25.636C253.062 21.5409 256.194 17.9392 253.443 13.6667C251.233 10.2366 247.039 7.88092 244.324 10.9522C240.027 11.311 239.794 16.5664 237.05 18.181C234.623 19.6084 230.165 21.3635 230.128 24.7156C230.108 26.4921 231.699 27.1297 232.727 28.331C233.84 29.6277 234.035 31.2112 234.103 32.7848C234.103 32.7829 231.83 46.6457 238.007 45.9807Z" fill="white"/>
<path d="M248.854 18.9904C248.831 18.9904 248.809 18.9826 248.79 18.969C248.552 18.7896 242.993 14.5658 244.381 11.9118C244.408 11.8591 244.473 11.8396 244.525 11.8669C244.578 11.8942 244.598 11.9586 244.57 12.0112C243.269 14.5053 248.862 18.7564 248.919 18.7993C248.966 18.8344 248.975 18.9027 248.94 18.9495C248.919 18.9768 248.888 18.9904 248.854 18.9904Z" fill="#2F353B"/>
<path d="M246.356 28.2472C246.341 28.2472 246.323 28.2433 246.308 28.2355C246.237 28.2004 239.268 24.587 239.824 19.1776C239.83 19.1191 239.885 19.0743 239.941 19.0821C240 19.0879 240.043 19.1406 240.037 19.1991C239.496 24.4622 246.335 28.0093 246.405 28.0444C246.458 28.0717 246.479 28.1361 246.452 28.1887C246.432 28.2258 246.395 28.2472 246.356 28.2472Z" fill="#2F353B"/>
<path d="M240.944 43.5764C240.915 43.5764 240.886 43.5647 240.864 43.5413C240.825 43.4965 240.829 43.4282 240.874 43.3892C240.936 43.3327 247.231 37.7243 249.159 33.8984C250.064 32.1043 250.07 29.6629 250.076 27.3014C250.084 24.5304 250.09 21.9115 251.473 20.3554C251.513 20.3105 251.581 20.3066 251.626 20.3456C251.671 20.3846 251.675 20.4529 251.635 20.4977C250.306 21.9915 250.301 24.5714 250.293 27.3014C250.287 29.6863 250.279 32.1531 249.352 33.9939C247.404 37.8569 241.081 43.4926 241.018 43.5491C240.997 43.5667 240.97 43.5764 240.944 43.5764Z" fill="#2F353B"/>
<path d="M206.232 61.3607C206.232 61.3607 212.44 56.3003 217.26 54.1338C222.069 51.9732 233.596 52.8078 236.426 50.6472C239.256 48.4865 238.585 56.9594 236.426 58.2055C234.267 59.4516 216.808 59.9508 215.81 62.1934C214.813 64.4359 196.106 69.4202 196.356 66.928C196.606 64.4339 202.553 63.5291 206.232 61.3607Z" fill="white"/>
<path d="M200.023 67.7139C199.964 67.7139 199.916 67.6671 199.916 67.6066C199.916 67.5481 199.962 67.4994 200.023 67.4994C208.616 67.4331 215.061 62.7783 217.178 61.2475L217.268 61.1832C219.224 59.7714 233.869 58.6677 234.492 58.6209C234.548 58.617 234.603 58.6599 234.607 58.7203C234.611 58.7788 234.566 58.8315 234.507 58.8354C234.355 58.8471 219.3 59.982 217.393 61.3587L217.303 61.4231C215.172 62.9616 208.685 67.6476 200.023 67.7139Z" fill="#2F353B"/>
<path d="M140.827 92.1481C140.819 92.1481 140.811 92.1481 140.803 92.1461C137.921 91.524 133.281 90.5744 130.772 90.0654C129.62 89.8314 128.445 89.7846 127.276 89.927L113.651 91.5923C113.595 91.6001 113.538 91.5572 113.532 91.4987C113.527 91.4402 113.568 91.3856 113.626 91.3797L127.251 89.7144C128.441 89.5682 129.64 89.6169 130.815 89.8548C133.324 90.3638 137.966 91.3134 140.85 91.9355C140.909 91.9472 140.946 92.0057 140.932 92.0622C140.92 92.1149 140.875 92.1481 140.827 92.1481Z" fill="#2F353B"/>
<path d="M159.012 106.523C158.361 106.523 157.767 106.486 157.246 106.408C156.069 106.231 155.254 105.687 154.822 104.788C153.296 101.615 157.01 95.147 157.17 94.874C157.199 94.8233 157.266 94.8057 157.316 94.835C157.367 94.8642 157.385 94.9305 157.355 94.9812C157.316 95.0475 153.54 101.625 155.015 104.696C155.416 105.527 156.177 106.032 157.277 106.198C161.399 106.818 170.34 104.69 178.229 102.813C182.033 101.908 185.628 101.052 188.586 100.51C197.8 98.8228 214.327 98.3489 214.493 98.345C214.553 98.345 214.602 98.3918 214.604 98.4484C214.606 98.5069 214.559 98.5576 214.501 98.5595C214.335 98.5634 197.824 99.0353 188.627 100.72C185.672 101.26 182.081 102.116 178.279 103.021C171.025 104.745 163.556 106.522 159.012 106.523Z" fill="#2F353B"/>
<path d="M201.573 78.1622C201.28 78.1622 200.899 78.0784 200.456 77.9087C199.178 77.4212 198.76 76.8342 198.454 76.4033C198.335 76.2356 198.232 76.0893 198.099 75.9801C197.636 75.7149 189.492 76.7426 184.133 77.4992C184.072 77.507 184.019 77.466 184.012 77.4075C184.004 77.349 184.045 77.2944 184.103 77.2866C186.375 76.9668 197.728 75.3912 198.237 75.8144C198.39 75.9411 198.507 76.1049 198.63 76.2785C198.936 76.7094 199.317 77.2437 200.535 77.7079C201.389 78.0335 201.879 77.9867 201.971 77.8073C202.049 77.6552 201.862 77.3256 201.352 76.9961C200.49 76.4345 199.863 75.5024 200.039 75.0441C200.086 74.9232 200.23 74.7282 200.679 74.7965L200.866 74.8257C201.686 74.9505 202.24 75.0363 202.56 75.2489C202.453 75.0227 202.252 74.6853 201.912 74.309C201.862 74.2524 201.842 74.1802 201.858 74.1061C201.959 73.6401 203.64 72.8913 206.6 71.6081C209.61 70.3036 213.732 68.5173 213.689 67.6125C213.658 66.9358 213.8 66.4249 214.112 66.0973C214.45 65.7444 214.86 65.7405 214.875 65.7405C214.934 65.7405 214.983 65.7892 214.983 65.8477C214.983 65.9062 214.934 65.955 214.875 65.955C214.874 65.955 214.536 65.9608 214.265 66.2494C213.995 66.5341 213.874 66.9905 213.904 67.6028C213.95 68.5778 210.941 69.9604 206.684 71.8051C204.559 72.7275 202.149 73.7707 202.065 74.151C202.592 74.7477 202.923 75.4068 202.859 75.5862C202.845 75.6233 202.8 75.6623 202.761 75.6681C202.681 75.6798 202.619 75.6135 202.568 75.5453C202.359 75.2684 201.752 75.1748 200.831 75.0344L200.644 75.0051C200.488 74.9817 200.289 74.9817 200.238 75.1162C200.115 75.438 200.657 76.2843 201.467 76.8128C202.045 77.1891 202.311 77.6064 202.16 77.9009C202.072 78.0764 201.868 78.1622 201.573 78.1622Z" fill="#2F353B"/>
<path d="M44.8622 120.843V166.088C44.8622 169.122 42.4011 171.583 39.3624 171.583H6.69125C6.54683 171.583 6.40627 171.577 6.2638 171.565C5.52997 171.509 4.83326 171.308 4.20872 170.99C4.00965 170.891 3.81835 170.777 3.63294 170.655C2.16137 169.668 1.19141 167.989 1.19141 166.086V120.841C1.19141 119.012 2.08528 117.393 3.45926 116.393C3.64467 116.258 3.83788 116.135 4.0389 116.026C4.82543 115.591 5.72907 115.344 6.69125 115.344H39.3624C42.4011 115.346 44.8622 117.807 44.8622 120.843Z" fill="#D68D60"/>
<path d="M46.3416 159.184L46.1192 162.238L45.8479 167.751C45.8186 168.344 46.1777 168.888 46.7359 169.091C48.9745 169.902 54.9876 171.606 62.1269 169.746C71.1983 167.382 70.9172 166.403 66.7523 164.859C66.1317 164.629 65.4798 164.405 64.8123 164.18C60.9968 162.895 53.6878 162.09 53.4711 159.184H46.3416Z" fill="#D9805D"/>
<path d="M46.7376 169.092C48.9761 169.904 54.9892 171.608 62.1285 169.748C71.1999 167.384 70.9189 166.405 66.754 164.861C66.1334 164.631 65.4815 164.406 64.814 164.182C58.5296 168.607 48.0276 166.563 46.1208 162.24L45.8495 167.753C45.8183 168.346 46.1794 168.89 46.7376 169.092Z" fill="#A36046"/>
<path d="M45.9027 119.288L17.8493 121.246C-12.6399 121.47 5.17116 91.4847 5.17116 91.4847L30.0219 94.9383C30.0219 94.9383 56.9434 103.173 64.7911 107.216C71.5303 110.687 56.7365 159.547 56.7365 159.547H44.3355C44.3355 159.547 42.1106 128.832 46.6385 120.41C46.9215 119.879 46.5019 119.247 45.9027 119.288Z" fill="#D7D991"/>
<path d="M15.0038 29.5127L15.7162 28.2764L21.2901 18.5867L29.374 24.1911L29.9908 24.6181L28.0645 32.3617L26.6944 37.8667L25.5468 42.4824C25.5468 42.4824 21.4268 41.5776 18.6847 36.9248C18.6808 36.9248 15.8157 32.4865 15.0038 29.5127Z" fill="#D9805D"/>
<path d="M29.9887 24.6181L28.0624 32.3617C24.7992 30.1016 25.3418 25.363 25.3418 25.363L29.3701 24.191L29.9887 24.6181Z" fill="#AD5B3B"/>
<path d="M32.53 76.0718L35.9474 62.2168C38.307 54.4985 33.9039 47.1313 27.8811 39.374C27.4907 38.8709 27.0946 38.3698 26.6925 37.8647C26.6925 37.8647 23.8079 37.2563 21.4347 35.0391C19.4362 33.1749 15.7124 28.2744 15.7124 28.2744C15.5172 28.5611 15.322 28.8477 15.1327 29.1363C-2.83446 56.2555 3.27039 91.5921 3.27039 91.5921C16.4989 100.478 30.2368 93.4914 30.2368 93.4914C30.2368 93.4914 31.1092 81.8322 32.53 76.0718Z" fill="#7F8F5E"/>
<path d="M74.3584 74.6482C76.8019 74.8159 80.4008 75.3151 82.1534 75.8768C82.6316 76.0308 82.8521 76.8342 82.0598 77.0039C81.5523 77.1111 78.2286 77.546 72.3423 76.8069C72.2291 76.7933 72.1569 76.9317 72.2408 77.0058C72.276 77.037 72.3306 77.0702 72.4087 77.1014C72.5102 77.1443 78.8415 78.3084 78.9507 78.3338C81.9583 79.0456 84.3979 79.2776 84.0954 80.3345C83.7499 81.5436 74.4775 79.8236 71.9598 79.6579C71.749 79.6442 71.6885 79.732 71.6807 79.8275C71.6729 79.9465 71.7627 80.0459 71.8798 80.0635C72.5453 80.161 75.2718 80.5744 77.5572 81.1711C80.2583 81.8751 82.4716 82.5127 82.8463 83.0899C82.9068 83.1835 82.9204 83.2752 82.8795 83.3649C82.8053 83.5268 82.5984 83.6418 82.2842 83.712C80.7385 84.0669 76.5736 83.4039 72.5726 82.5849C72.1745 82.5049 71.7783 82.4211 71.388 82.3372C70.7654 82.2046 70.9566 82.9983 75.0649 84.6285C75.2933 84.7202 75.5353 84.8118 75.789 84.9093C79.6612 86.3738 78.8336 86.7677 78.8336 86.7677C78.7438 86.8262 78.6307 86.8711 78.4999 86.9023C78.336 86.9432 78.1388 86.9647 77.9203 86.9705C75.6836 87.0271 70.9742 85.3227 70.6093 85.2935C64.1277 84.7982 60.0292 80.9468 60.0292 80.9468C60.0292 80.9468 35.2975 92.5457 29.0951 88.4018C22.8926 84.258 15.9973 64.8688 15.9973 64.8688C15.9973 64.8688 20.7243 58.3927 27.0516 56.4095C27.0516 56.4095 34.1148 74.8569 35.356 75.1747C36.5973 75.4926 60.5776 73.5796 60.5776 73.5796C60.5776 73.5796 64.9786 72.5871 66.6825 72.9186C68.3863 73.2462 73.1367 74.5449 74.3584 74.6482Z" fill="#D9805D"/>
<path d="M39.8002 19.1639C39.039 29.9047 35.1981 31.4686 31.246 30.6047C27.9008 29.8734 20.8982 24.858 21.47 17.364C22.0419 9.86998 23.4529 3.07019 29.7744 3.55185C36.0959 4.03351 42.392 11.042 39.8002 19.1639Z" fill="#D9805D"/>
<path d="M16.7229 25.5463C16.9044 25.7881 17.2479 25.8447 17.5504 25.8564C18.6355 25.8993 23.4172 24.544 25.3064 22.5784C25.6694 22.2001 25.9231 21.8179 26.091 21.4376C27.3069 18.7037 29.5044 16.543 32.3285 15.5426C35.2209 14.5189 38.1211 12.9803 39.095 10.7768C41.2575 5.88217 30.1856 -4.10008 21.9163 1.82413C16.2116 5.91726 8.2077 14.2732 16.7229 25.5463Z" fill="#2F353B"/>
<path d="M29.9635 18.9982C29.6571 20.7201 28.371 21.9311 27.0926 21.7029C25.8143 21.4748 25.0258 19.8972 25.3302 18.1753C25.6366 16.4534 26.9208 15.2424 28.2011 15.4706C29.4815 15.6968 30.2699 17.2764 29.9635 18.9982Z" fill="#D9805D"/>
<path d="M39.5249 17.7013C39.5249 17.7013 40.4734 22.707 40.6256 23.6879C40.8286 24.9866 39.5502 24.8638 37.6024 24.6746C36.045 24.5225 39.5249 17.7013 39.5249 17.7013Z" fill="#D9805D"/>
<path d="M39.5889 15.5231C39.6533 15.8839 38.9253 16.3168 37.9612 16.4904C36.9971 16.6639 36.1637 16.5118 36.0973 16.151C36.0329 15.7903 36.7609 15.3554 37.7251 15.1838C38.6911 15.0103 39.5245 15.1624 39.5889 15.5231Z" fill="#2F353B"/>
<path d="M36.2635 18.3118C37.5262 16.7186 39.7296 16.9682 39.4349 19.3102C39.4213 19.3999 39.2846 19.396 39.2729 19.3083C38.865 17.3348 37.8228 17.5727 36.3669 18.4327C36.2946 18.4795 36.2069 18.3781 36.2635 18.3118Z" fill="#2F353B"/>
<path d="M38.9508 18.8752C38.7673 19.4953 38.3009 19.9048 37.9086 19.7897C37.5163 19.6747 37.3504 19.076 37.5339 18.4559C37.7193 17.8358 38.1838 17.4263 38.5761 17.5413C38.9664 17.6583 39.1343 18.2551 38.9508 18.8752Z" fill="#2F353B"/>
<path d="M37.7282 27.1474C37.7204 27.1474 37.7145 27.1474 37.7086 27.1454C37.6735 27.1396 36.835 26.9719 36.6595 26.4337C36.6419 26.3772 36.6712 26.3167 36.7278 26.2991C36.7843 26.2816 36.8448 26.3108 36.8623 26.3674C36.9988 26.7847 37.7398 26.9329 37.7476 26.9349C37.8061 26.9466 37.8432 27.0031 37.8334 27.0597C37.8237 27.1123 37.7789 27.1474 37.7282 27.1474Z" fill="#2F353B"/>
<path d="M14.0183 18.4697C14.0183 18.4697 7.34543 19.4292 6.84775 25.8643C6.34812 32.2994 7.34738 44.7348 2.35889 48.4867C2.35889 48.4867 2.44867 49.9687 6.02024 48.4867C9.59182 47.0046 15.8274 33.4733 13.583 28.2765C11.3386 23.0796 15.0038 20.878 15.0038 20.878L14.0183 18.4697Z" fill="#2F353B"/>
<path d="M27.8807 39.376C26.0266 38.8865 23.0054 37.9856 21.4343 36.9384C19.5802 35.7002 16.4146 31.0786 15.1323 29.1402C15.3216 28.8497 15.5168 28.565 15.712 28.2783C15.712 28.2783 19.4358 33.1768 21.4343 35.043C23.8076 37.2602 26.6921 37.8686 26.6921 37.8686C27.0942 38.3717 27.4903 38.8729 27.8807 39.376Z" fill="white"/>
<path d="M15.6534 65.1261C15.6534 65.1261 22.4355 58.108 27.5001 56.3334L26.5438 53.6755C26.5438 53.6755 18.2297 57.6205 14.4883 62.9382L15.6534 65.1261Z" fill="white"/>
<path d="M13.5754 62.1701C13.5442 62.1701 13.5129 62.1564 13.4915 62.1291L11.7447 59.9295C11.7076 59.8827 11.7155 59.8164 11.7623 59.7794C11.8091 59.7423 11.8755 59.7501 11.9126 59.7969L13.6593 61.9966C13.6964 62.0434 13.6886 62.1096 13.6417 62.1467C13.6222 62.1642 13.5988 62.1701 13.5754 62.1701Z" fill="white"/>
<path d="M26.188 52.995C26.151 52.995 26.1139 52.9755 26.0944 52.9404C25.8741 52.5543 24.7937 50.6062 25.2247 50.0777C25.2617 50.0309 25.33 50.0251 25.3749 50.0621C25.4217 50.0992 25.4275 50.1674 25.3904 50.2123C25.1291 50.534 25.798 51.9907 26.2796 52.8331C26.3089 52.8838 26.2914 52.9501 26.2407 52.9794C26.2251 52.9891 26.2056 52.995 26.188 52.995Z" fill="white"/>
<path d="M10.7471 47.3459C10.7217 47.3459 10.6963 47.3381 10.6768 47.3186C10.6319 47.2796 10.628 47.2113 10.6671 47.1665C10.9618 46.8311 17.9 38.9744 20.2791 40.3316C22.6211 41.6693 23.1129 43.6486 23.1325 43.7325C23.1461 43.791 23.111 43.8475 23.0524 43.8612C22.9939 43.8729 22.9373 43.8397 22.9236 43.7812C22.9197 43.7617 22.4298 41.8058 20.1717 40.5169C17.9468 39.2474 10.8993 47.225 10.8271 47.3069C10.8076 47.3322 10.7764 47.3459 10.7471 47.3459Z" fill="white"/>
</svg>
