<svg width="14" height="14" viewBox="0 0 14 14" fill="none" xmlns="http://www.w3.org/2000/svg">
<path d="M6.9962 1.16663C9.71609 1.16663 11.9584 3.3354 11.9584 6.01865C11.9584 7.37078 11.4666 8.62608 10.6572 9.69005C9.76432 10.8637 8.66378 11.8862 7.425 12.6889C7.14149 12.8744 6.88561 12.8884 6.57445 12.6889C5.32862 11.8862 4.22807 10.8637 3.34281 9.69005C2.53284 8.62608 2.04169 7.37078 2.04169 6.01865C2.04169 3.3354 4.28395 1.16663 6.9962 1.16663ZM6.9962 4.53644C6.09682 4.53644 5.36332 5.27784 5.36332 6.16973C5.36332 7.06862 6.09682 7.7756 6.9962 7.7756C7.89616 7.7756 8.63672 7.06862 8.63672 6.16973C8.63672 5.27784 7.89616 4.53644 6.9962 4.53644Z" fill="#5C635A"/>
</svg>
