<svg width="88" height="25" viewBox="0 0 88 25" fill="none" xmlns="http://www.w3.org/2000/svg">
<path d="M13.7656 22.7812C14.151 22.7812 14.4844 22.6927 14.7656 22.5156C15.0573 22.3281 15.2604 21.9219 15.375 21.2969C15.5 20.6719 15.6406 20.2969 15.7969 20.1719C15.9531 20.0365 16.1406 19.9688 16.3594 19.9688C16.5156 19.9688 16.6771 20.0521 16.8438 20.2188C17.0104 20.3854 17.0938 20.6094 17.0938 20.8906C17.0938 21.7969 17.1562 22.7031 17.2812 23.6094C17.2812 24.1719 17.0104 24.4271 16.4688 24.375C16.1146 24.3333 15.5677 24.3125 14.8281 24.3125H2.65625C1.69792 24.3125 1.21875 24.0677 1.21875 23.5781C1.21875 23.2552 1.30208 23.0521 1.46875 22.9688C1.64583 22.875 1.91146 22.8229 2.26562 22.8125C2.94271 22.7708 3.36458 22.5938 3.53125 22.2812C3.69792 21.9583 3.78125 21.5938 3.78125 21.1875V4.79688C3.78125 4.41146 3.6875 4.06771 3.5 3.76562C3.3125 3.45312 2.90104 3.19792 2.26562 3C1.64062 2.80208 1.26042 2.61979 1.125 2.45312C1 2.27604 0.9375 2.07812 0.9375 1.85938C0.9375 1.73438 1.01562 1.61458 1.17188 1.5C1.32812 1.375 1.51562 1.3125 1.73438 1.3125C1.88021 1.3125 2.22917 1.41146 2.78125 1.60938C3.34375 1.79688 3.96354 1.89062 4.64062 1.89062C5.48438 1.89062 6.28125 1.78646 7.03125 1.57812C7.78125 1.35938 8.26562 1.25 8.48438 1.25C8.72396 1.25 8.93229 1.33854 9.10938 1.51562C9.29688 1.68229 9.39062 1.86979 9.39062 2.07812C9.39062 2.25521 9.33333 2.40625 9.21875 2.53125C9.11458 2.64583 8.83333 2.75 8.375 2.84375C7.79167 2.95833 7.38021 3.11458 7.14062 3.3125C6.73438 3.65625 6.53125 4.23958 6.53125 5.0625V20.7031C6.53125 21.4844 6.65104 22.026 6.89062 22.3281C7.14062 22.6302 7.5 22.7812 7.96875 22.7812H13.7656ZM29.875 0.984375C33.5208 0.984375 36.3854 2.23438 38.4688 4.73438C40.5521 7.23438 41.5938 10.0417 41.5938 13.1562C41.5938 15.4583 41.026 17.5625 39.8906 19.4688C38.7656 21.375 37.2917 22.7188 35.4688 23.5C33.6562 24.2812 31.7292 24.6719 29.6875 24.6719C26.3646 24.6719 23.599 23.5156 21.3906 21.2031C19.1823 18.8906 18.0781 15.9531 18.0781 12.3906C18.0781 10.526 18.5677 8.68229 19.5469 6.85938C20.526 5.03646 21.9062 3.60417 23.6875 2.5625C25.4792 1.51042 27.5417 0.984375 29.875 0.984375ZM29.7812 23.1719C31.7396 23.1719 33.3698 22.7396 34.6719 21.875C35.9844 21.0104 36.9219 19.9479 37.4844 18.6875C38.0469 17.4167 38.3281 15.7292 38.3281 13.625C38.3281 9.98958 37.5677 7.21354 36.0469 5.29688C34.526 3.36979 32.4688 2.40625 29.875 2.40625C27.1979 2.40625 25.1042 3.39583 23.5938 5.375C22.0833 7.34375 21.3281 9.68229 21.3281 12.3906C21.3281 19.5781 24.1458 23.1719 29.7812 23.1719ZM62.25 15.5156C62.6146 15.5156 62.8646 15.5521 63 15.625C63.1458 15.6875 63.2188 15.8333 63.2188 16.0625C63.2188 16.2917 63.0885 16.5365 62.8281 16.7969C62.5781 17.0469 62.4531 17.401 62.4531 17.8594V19.1406C62.4531 19.4844 62.5521 19.7552 62.75 19.9531C62.9583 20.151 63.0625 20.3281 63.0625 20.4844C63.0625 20.9115 62.6042 21.4531 61.6875 22.1094C60.7812 22.7656 59.6354 23.3281 58.25 23.7969C56.8646 24.2552 55.5312 24.4844 54.25 24.4844C51 24.4844 48.2031 23.4115 45.8594 21.2656C43.526 19.1094 42.3594 16.2448 42.3594 12.6719C42.3594 10.5885 42.8333 8.65104 43.7812 6.85938C44.7396 5.06771 46.0677 3.67188 47.7656 2.67188C49.4635 1.66146 51.3698 1.15625 53.4844 1.15625C55.5365 1.15625 57.4375 1.53125 59.1875 2.28125C60.9375 3.02083 61.8125 3.84896 61.8125 4.76562V6.01562C61.8125 6.14062 61.8385 6.33333 61.8906 6.59375C61.9427 6.84375 61.9688 7.07812 61.9688 7.29688C61.9688 7.50521 61.9167 7.6875 61.8125 7.84375C61.7188 7.98958 61.5885 8.0625 61.4219 8.0625C61.2448 8.0625 61.0781 7.99479 60.9219 7.85938C60.7656 7.71354 60.5365 7.32292 60.2344 6.6875C59.6615 5.5 59.0625 4.64062 58.4375 4.10938C57.3438 3.18229 55.8229 2.71875 53.875 2.71875C51.4062 2.71875 49.4271 3.61979 47.9375 5.42188C46.4583 7.22396 45.7188 9.58854 45.7188 12.5156C45.7188 15.849 46.5208 18.4219 48.125 20.2344C49.7292 22.0365 51.7969 22.9375 54.3281 22.9375C55.6406 22.9375 56.8594 22.6771 57.9844 22.1562C59.1094 21.625 59.6719 20.8542 59.6719 19.8438V17.7344C59.6719 17.224 59.1927 16.9688 58.2344 16.9688C58.0677 16.9688 57.8073 16.9792 57.4531 17C57.1094 17.0208 56.8646 17.0312 56.7188 17.0312C56.3229 17.0312 56.0156 16.9531 55.7969 16.7969C55.5781 16.6406 55.4688 16.4375 55.4688 16.1875C55.4688 15.7396 55.7708 15.5156 56.375 15.5156H62.25ZM75.9375 0.984375C79.5833 0.984375 82.4479 2.23438 84.5312 4.73438C86.6146 7.23438 87.6562 10.0417 87.6562 13.1562C87.6562 15.4583 87.0885 17.5625 85.9531 19.4688C84.8281 21.375 83.3542 22.7188 81.5312 23.5C79.7188 24.2812 77.7917 24.6719 75.75 24.6719C72.4271 24.6719 69.6615 23.5156 67.4531 21.2031C65.2448 18.8906 64.1406 15.9531 64.1406 12.3906C64.1406 10.526 64.6302 8.68229 65.6094 6.85938C66.5885 5.03646 67.9688 3.60417 69.75 2.5625C71.5417 1.51042 73.6042 0.984375 75.9375 0.984375ZM75.8438 23.1719C77.8021 23.1719 79.4323 22.7396 80.7344 21.875C82.0469 21.0104 82.9844 19.9479 83.5469 18.6875C84.1094 17.4167 84.3906 15.7292 84.3906 13.625C84.3906 9.98958 83.6302 7.21354 82.1094 5.29688C80.5885 3.36979 78.5312 2.40625 75.9375 2.40625C73.2604 2.40625 71.1667 3.39583 69.6562 5.375C68.1458 7.34375 67.3906 9.68229 67.3906 12.3906C67.3906 19.5781 70.2083 23.1719 75.8438 23.1719Z" fill="#4285F3"/>
</svg>
